<svg id="Layer_1" data-name="Layer 1" xmlns="http://www.w3.org/2000/svg" viewBox="0 0 165.35 165.35"><defs><style>.cls-1{fill:#4c2038;}.cls-2,.cls-3{fill:#eb439f;}.cls-3{font-size:92px;font-family:MixCakeTopper, MixCakeTopper;}</style></defs><title>myprofile</title><rect class="cls-1" x="11.68" y="11.68" width="142" height="142" rx="8" ry="8"/><path class="cls-2" d="M145.68,15.68a4.06,4.06,0,0,1,4,4v126a4.06,4.06,0,0,1-4,4h-126a4.06,4.06,0,0,1-4-4v-126a4.05,4.05,0,0,1,4-4h126m0-8h-126a12,12,0,0,0-12,12v126a12,12,0,0,0,12,12h126a12,12,0,0,0,12-12v-126a12,12,0,0,0-12-12Z"/><text class="cls-3" transform="translate(48.22 116.05)">Id</text></svg>