<svg id="Layer_1" data-name="Layer 1" xmlns="http://www.w3.org/2000/svg" viewBox="0 0 378.73 366.15"><defs><style>.cls-1{fill:#c6d4e5;}.cls-2{fill:#fceced;}.cls-3{fill:#555069;}.cls-4{fill:none;stroke:#555069;stroke-miterlimit:10;}.cls-5{fill:#161528;}.cls-6{fill:#efd8df;}.cls-7{fill:#3a3952;}</style></defs><title>myprofile</title><rect class="cls-1" x="11.93" y="11.69" width="350" height="350" rx="12" ry="12"/><rect class="cls-2" x="170.18" y="262.37" width="31.41" height="38.4"/><path class="cls-2" d="M124.5,352.39c0-41.28,26.81-74.73,59.89-74.73s59.89,33.45,59.89,74.73"/><path class="cls-3" d="M177.29,290c-11-7.79-23.24-16.12-36.87-16-4.29.05-9.5.87-11.81,5.37a8.24,8.24,0,0,0,2.58,10.74c3.47,2.49,6.69-3.6,3.24-6.07l3.87-2.92,2.12-.09a21.35,21.35,0,0,1,6.45.68,43.08,43.08,0,0,1,10.28,3.67c5.93,2.92,11.44,6.79,16.9,10.64,3.48,2.46,6.71-3.62,3.24-6.06Z"/><path class="cls-3" d="M127.51,287.25c-3.1.94-4.85,3.8-4.34,7.36.59,4.12,3.93,5.8,7.37,6.32,6.87,1,14.32.19,21.25.21l23.88.06c4.14,0,4.14-7,0-7l-23.88-.06-11.31,0c-3.39,0-8-1-11.26-.05,4-1.21,2.29-8-1.71-6.78Z"/><path class="cls-3" d="M135,289.66a20.7,20.7,0,0,1,18.68-.29l.77-6.42a222.42,222.42,0,0,1-24.9,5.43l1.71,6.78c4.69-2,9.73-1.4,14.66-1.35q8.06.09,16.11.32c3.57.09,4.43-6,.85-6.91a21.73,21.73,0,0,1-6.85-2.9l-2.47,6.42a18.86,18.86,0,0,1,6.64,2.56l.77-6.42a111.49,111.49,0,0,1-21.26,2.72c-4.13.14-4.15,7.16,0,7l19-.6c6.33-.2,13.55-1.56,18.88,3.05v-5l-.05,0c-4.09.39-4.13,7.42,0,7a6.75,6.75,0,0,0,4.6-2,3.76,3.76,0,0,0,0-5c-4.89-4.23-9.82-5.41-16-5.33-8.81.11-17.62.55-26.41.82v7a120.54,120.54,0,0,0,23-3c2.74-.62,3.08-5,.77-6.42a23.78,23.78,0,0,0-8.18-3.27c-3.43-.67-5.81,4.3-2.48,6.42a26.48,26.48,0,0,0,8.38,3.62l.86-6.9c-10-.28-22.94-2.69-32.48,1.28-3.92,1.64-2.37,7.43,1.71,6.78a222.42,222.42,0,0,0,24.9-5.43c2.46-.69,3.38-5.19.77-6.42a27.23,27.23,0,0,0-25.17.28c-3.75,1.89-.49,8,3.24,6.07Z"/><path class="cls-3" d="M131.54,297.16C118,310.9,108.59,335.58,109.3,355.79c.16,4.51,6.59,4.53,6.43,0-.65-18.47,8-41.12,20.36-53.66,3-3.08-1.51-8-4.55-5Z"/><path class="cls-3" d="M175.91,299.59l3.84,54.16c.32,4.48,6.75,4.52,6.43,0l-3.84-54.16c-.32-4.48-6.75-4.51-6.43,0Z"/><path class="cls-3" d="M112.32,356.59l35.15-.07c11.23,0,22.83-1,33.61,3.06,3.92,1.48,5.6-5.31,1.71-6.77-10.57-4-21.79-3.35-32.81-3.33l-37.66.08c-4.14,0-4.15,7,0,7Z"/><path class="cls-3" d="M167.33,303.48a233.44,233.44,0,0,1,3.11,38.92c0,4.64,5.94,4.36,6.43,0a287.08,287.08,0,0,0,1.57-42.69c-.17-4.5-6.58-4.53-6.43,0l1.81,53.79,6.32-.93a291.51,291.51,0,0,1-10.9-49.15l-6.2,1.87,4.31,30.5,6.2-1.87a239.28,239.28,0,0,1-9.42-31c-1-4.46-6.86-2.5-6.2,1.87a398.15,398.15,0,0,1,4.29,46.66l6.31-.93L156.36,311l-6.19,1.86,6.24,19.43c1.17,3.62,6.3,3.2,6.32-.94A114.63,114.63,0,0,0,160,306c-.83-3.76-6.71-3.07-6.31.93l2.84,28.44,6-1.77-6.08-15.27c-1-2.54-2-5.08-3-7.63l-1-2.54q-4.19-5.53,3.14-6.36l.65-5.52c-3.28,1.53-6.6,3.18-9.86,1.28-1.71-1-2.13-2.32-4.37-2.28-4.24.07-6.26,4.55-7.83,8.22-2.54,5.91-4.84,12-7.1,18q-2.09,5.56-4.06,11.18c-.77,2.22-2.94,11.86-4.76,12.61l4,2.46a52.45,52.45,0,0,1,11.54-41.81l-5.05-.71c1.46,3.62-2.65,9-4.13,11.93q-2.88,5.67-5.39,11.55A215.35,215.35,0,0,0,111,351.24a3.25,3.25,0,0,0,5.88,2.71q12.84-21.66,24.3-44.21l-5.55-3.55q-8.34,18.76-15.71,38c-1.4,3.63,4.41,6.35,5.87,2.71l8-19.95,4-10,2-5c.68-3.14,1.18-3.34,1.52-.6,1.61,4.64-4.58,14.23-6.74,18.41a147.72,147.72,0,0,1-10.71,17.54l5.37,1.55c-2.17-13.8,10.29-30,18.24-39.41l-5.05-4.25-9.71,24.87c-1.88,4.84-4.72,9.85-1.95,14.86a3.09,3.09,0,0,0,5.05.71c9.25-11,13.06-25.13,16.42-39.31h-6.2c5.08,15.27-3.65,28.28-17.21,32.38-3.33,1-7.79,1.52-9.28,5.54a6.13,6.13,0,0,0,3.15,7.71c4,2,9.12.46,13.18-.2,4.6-.74,10.77-1.14,14.55-4.41,4-3.48,3.2-9.52,3.22-14.48l.13-25.23c0-4.59-6-4.42-6.43,0-1.39,16.13-9.08,30.76-21.14,40.19-2.49,1.95-1.76,6.5,1.63,6.55,25.11.33,27.83-34.74,27.45-54.46l-6.31.94a69.75,69.75,0,0,1-2,34.75c-1.63,5-8.63,15.92.1,18.17,4.54,1.17,16-.68,18.47-5.85,3.18-6.78-3.76-15.25-8.46-18.45a3.17,3.17,0,0,0-4.72,2.1c-1.05,5.49-2.95,15.68-10.23,13.62V352a178.86,178.86,0,0,1,25-2.91c3.31-.15,4.22-4.56,1.63-6.54a34.93,34.93,0,0,0-9.81-5.28c-2.9-1-5.71,3.68-3.13,5.87l1.82,1.55.65-5.52-1.45-.62-3.13,5.87c5.25.78,19.28,5.15,17.22-5.84L165.67,342a12.53,12.53,0,0,1,2.17,4c.39,2,.94,1.9,1.66-.37-1.73-.73-4.43-.45-6.23-.63-4.12-.41-4.1,6.62,0,7,3.54.36,9.41,2.27,11.24-2.41,1.64-4.23-2.08-9.46-4.29-12.55s-5.95.36-5.37,3.42l.27,1.46.82-3.42c-1.12,1.54-8.79-.61-10.41-.85a3.52,3.52,0,0,0-3.13,5.87c2.62,3.23,5.8,3.53,9.24,1.73,1.72-.9,2.23-4.18.65-5.52l-1.81-1.55L157.35,344a29.81,29.81,0,0,1,8.27,4.57l1.62-6.54a189.74,189.74,0,0,0-26.74,3.16c-3.21.6-2.91,5.95,0,6.77,11.16,3.16,16.25-8.64,18.13-18.52l-4.72,2.1c2.52,1.71,7.94,6.49,4,9.74-.94.78-9.12,2-9.2,1.6.16.88,2.76-4.55,3-5.09a73.29,73.29,0,0,0,2.82-8.76,78.7,78.7,0,0,0,.7-34.05c-.75-3.9-6.39-3-6.32.93.3,15.46-.22,47.71-21,47.43l1.62,6.55c14.06-11,22.69-27.44,24.32-46.26h-6.43l-.1,19.62c0,6.88,1.25,13.25-5.45,16.17-2,.86-4.43,1-6.53,1.38s-6.73,0-8.83.91c-1.53-.16-1.18,0,1.07.58,1.36-.31,2.71-.69,4-1.12a42.17,42.17,0,0,0,4.7-1.87c14-6.56,21.27-22.95,16-38.85-1-3.09-5.35-3.57-6.2,0-3.06,12.92-6.32,26.13-14.76,36.21l5,.71c-1.59-2.88,4.29-13.75,5.35-16.47L148,308.77c1.31-3.36-2.34-7.46-5.05-4.25-9.91,11.72-22.57,29.24-19.89,46.24.38,2.45,3.94,3.57,5.37,1.55a155.71,155.71,0,0,0,15.86-27.63c2.61-5.95,7.66-15.43,2.06-21.16-5.28-5.4-9.8-.62-12.08,4.92-4.77,11.6-9.38,23.27-14.07,34.91l5.88,2.71q7.07-18.39,15.06-36.32c1.79-4-3.52-7.55-5.55-3.55q-11.46,22.56-24.31,44.21l5.88,2.71a197,197,0,0,1,12.3-31.29c3.27-6.55,7.74-12.6,4.7-20.16a3.08,3.08,0,0,0-5.05-.71c-11.24,13.28-15.92,30.84-13.19,48.65a3.2,3.2,0,0,0,4,2.45c4.67-1.93,5.49-6.47,7.1-11.27q4.29-12.73,9.2-25.21c1.11-2.8,2.46-9,4.48-11s1.6-.17,3.74,1.24c4.56,3,10.88-1.59,15-3.5,2-.94,1.86-4,.65-5.52-4.91-6-14.18-4.22-15.64,4.23-.86,4.94,2.18,10.1,3.92,14.46L157,337.11c1.25,3.14,6.33,1.61,6-1.77l-2.84-28.44-6.31.93a106.38,106.38,0,0,1,2.5,23.48l6.31-.93L156.36,311c-1.36-4.23-7.52-2.45-6.19,1.86l12.16,39.55c1.11,3.6,6.45,3.21,6.31-.94a412.71,412.71,0,0,0-4.51-48.53l-6.2,1.87a240.85,240.85,0,0,0,9.42,31c1.58,4.18,6.84,2.65,6.2-1.87l-4.31-30.5c-.63-4.47-6.79-2.55-6.2,1.87a291.4,291.4,0,0,0,10.9,49.14c1.12,3.58,6.45,3.23,6.31-.93l-1.81-53.79H172a287.08,287.08,0,0,1-1.57,42.69h6.43a244.12,244.12,0,0,0-3.34-40.79c-.74-4.44-6.93-2.56-6.2,1.87Z"/><path class="cls-3" d="M159.06,299.89a10.1,10.1,0,0,1,8.14,6.6c.62,1.77,2.16,3,4,2.46a3.61,3.61,0,0,0,2.25-4.33c-2.09-5.95-6.74-10.58-12.63-11.51a3.31,3.31,0,0,0-4,2.46c-.41,1.65.52,4.05,2.25,4.32Z"/><path class="cls-3" d="M196.93,296.07a127.58,127.58,0,0,1,16.89-10.64,46.08,46.08,0,0,1,9.25-3.45,31.09,31.09,0,0,1,6.42-.87c.59,0,10,.9,7,3-3.44,2.47-.23,8.56,3.25,6.07a8.19,8.19,0,0,0,2.92-10.05c-2.08-5-7.66-6-12.16-6.06-13.62-.16-25.84,8.17-36.87,16-3.46,2.44-.24,8.53,3.25,6.06Z"/><path class="cls-3" d="M241.75,294c-2.84-.86-7,0-10,.05l-12.57,0-23.88.06c-4.13,0-4.14,7,0,7l22.62-.06c7.35,0,15.24.89,22.52-.21,3.28-.5,6.48-2,7.3-5.85.79-3.69-1.06-6.86-4.28-7.83-4-1.21-5.7,5.57-1.71,6.78Z"/><path class="cls-3" d="M239.23,283.59a27.21,27.21,0,0,0-25.16-.28c-2.62,1.23-1.72,5.73.76,6.42a222.42,222.42,0,0,0,24.9,5.43c4.07.65,5.64-5.14,1.71-6.78-9.54-4-22.5-1.56-32.47-1.28l.85,6.9a26.51,26.51,0,0,0,8.38-3.62c3.3-2.1,1-7.09-2.47-6.42a23.74,23.74,0,0,0-8.18,3.27c-2.31,1.43-2,5.8.76,6.42a120.54,120.54,0,0,0,23,3v-7c-8.8-.27-17.61-.71-26.41-.82-6.19-.08-11.13,1.11-16,5.33a3.74,3.74,0,0,0,0,5,6.72,6.72,0,0,0,4.59,2c4.12.39,4.1-6.64,0-7l-.05,0v5c5.33-4.61,12.55-3.25,18.88-3.05l19,.6c4.14.13,4.13-6.89,0-7A111.49,111.49,0,0,1,210,286.88l.77,6.42a18.91,18.91,0,0,1,6.65-2.56L215,284.32a21.63,21.63,0,0,1-6.85,2.9c-3.54.86-2.76,7,.86,6.91q8-.22,16.1-.32c4.91-.05,10-.59,14.66,1.35l1.71-6.78a222.42,222.42,0,0,1-24.9-5.43l.77,6.42a20.7,20.7,0,0,1,18.68.29c3.73,1.87,7-4.18,3.24-6.07Z"/><path class="cls-3" d="M234.88,302.13c12.36,12.54,21,35.19,20.36,53.66-.15,4.52,6.27,4.52,6.43,0,.71-20.21-8.7-44.89-22.24-58.63-3-3.07-7.59,1.89-4.55,5Z"/><path class="cls-3" d="M258.65,349.56,221,349.48c-11,0-22.25-.65-32.82,3.33-3.89,1.46-2.21,8.25,1.71,6.77,10.78-4.05,22.38-3.09,33.62-3.06l35.14.07c4.14,0,4.15-7,0-7Z"/><path class="cls-3" d="M197.44,301.61a246.25,246.25,0,0,0-3.34,40.79h6.43A287.08,287.08,0,0,1,199,299.71h-6.43l-1.81,53.79c-.14,4.13,5.18,4.54,6.32.93a292.35,292.35,0,0,0,10.89-49.14c.59-4.41-5.57-6.35-6.2-1.87l-4.31,30.5c-.63,4.51,4.61,6.06,6.2,1.87a239.28,239.28,0,0,0,9.42-31l-6.2-1.87a412.71,412.71,0,0,0-4.51,48.53c-.14,4.11,5.2,4.57,6.31.94l12.17-39.55c1.32-4.3-4.84-6.1-6.2-1.86l-6.25,19.42,6.31.93a105.73,105.73,0,0,1,2.51-23.48l-6.32-.93L208,335.34c-.33,3.38,4.74,4.91,6,1.77l8.11-20.35c1.85-4.64,5.35-10.46,4.43-15.73-1.46-8.43-10.72-10.27-15.63-4.23-1.22,1.49-1.39,4.58.65,5.52,4,1.87,10.1,6.23,14.6,3.67,2.2-1.24,2-3.6,4.14-1.41s3.41,8.29,4.47,11q4.66,11.85,8.77,24c1.74,5.1,2.52,10.45,7.53,12.52,1.51.63,3.68-.7,3.95-2.45,2.74-17.81-1.94-35.37-13.19-48.65a3.08,3.08,0,0,0-5.05.71c-3,7.56,1.42,13.59,4.7,20.16a197,197,0,0,1,12.3,31.29l5.88-2.71q-12.86-21.64-24.31-44.21c-2-4-7.34-.48-5.55,3.55q8,17.94,15.07,36.32l5.87-2.71c-4.69-11.64-9.3-23.31-14.07-34.91-2.27-5.54-6.74-10.37-12.08-4.92-5.6,5.73-.55,15.19,2.07,21.16a155.05,155.05,0,0,0,15.85,27.63c1.43,2,5,.9,5.37-1.55,2.67-17-10-34.53-19.89-46.24-2.68-3.18-6.37.86-5.05,4.25l6.31,16.17c1.13,2.91,6.89,13.68,5.35,16.47l5-.71c-8.45-10.08-11.71-23.29-14.77-36.21-.84-3.56-5.17-3.1-6.2,0-5.28,15.9,2,32.3,16,38.85a42.17,42.17,0,0,0,4.7,1.87c1.34.43,2.68.81,4,1.12l1.94-.63c-.69-.73-6.64-.41-7.93-.6-2.65-.39-5.79-.59-8.3-1.64-6.81-2.84-5.42-9.49-5.45-16.17l-.1-19.62h-6.43c1.63,18.82,10.26,35.25,24.32,46.26l1.63-6.55c-20.79.28-21.33-32-21-47.43.08-3.89-5.56-4.86-6.31-.93a78.54,78.54,0,0,0,.69,34.05,75.18,75.18,0,0,0,2.83,8.76c.21.54,2.81,6,3,5.09-.07.42-8.25-.82-9.2-1.6-3.92-3.25,1.5-8,4-9.74l-4.72-2.1c1.89,9.89,7,21.68,18.13,18.52,2.91-.82,3.22-6.17,0-6.77a189.74,189.74,0,0,0-26.74-3.16l1.62,6.54a29.81,29.81,0,0,1,8.27-4.57l-3.12-5.87-1.82,1.55c-1.57,1.34-1.07,4.62.65,5.52,3.45,1.81,6.63,1.48,9.24-1.73a3.52,3.52,0,0,0-3.13-5.87c-1.61.24-9.29,2.39-10.41.85l.82,3.42.28-1.46c.57-3.06-3.21-6.44-5.38-3.42s-5.95,8.32-4.28,12.55c1.83,4.67,7.73,2.76,11.24,2.41,4.08-.41,4.12-7.44,0-7a61.41,61.41,0,0,0-6.23.63l1.08,1.79A17.1,17.1,0,0,1,205.3,342l-5.37-3.42c-2.05,11,12,6.62,17.22,5.84L214,338.55l-1.46.62.65,5.52,1.82-1.55c2.58-2.19-.22-6.9-3.13-5.87a34.76,34.76,0,0,0-9.8,5.28c-2.59,2-1.7,6.39,1.62,6.54a179.18,179.18,0,0,1,25,2.91v-6.77c-7.29,2.06-9.18-8.13-10.23-13.62a3.17,3.17,0,0,0-4.72-2.1c-4.71,3.21-11.31,11.23-8.63,18,2.22,5.64,13.95,7.48,18.63,6.27,8.39-2.17,2.19-12.1.47-17.08A69.55,69.55,0,0,1,222,300.89l-6.32-.94c-.38,19.72,2.34,54.79,27.46,54.46,3.38-.05,4.11-4.59,1.62-6.55-12.05-9.43-19.75-24.05-21.14-40.19-.38-4.42-6.45-4.6-6.43,0l.12,23.83c0,4.87-1,11.45,2.6,15.23s9.58,4.1,14.08,4.89c4.31.75,10.09,2.45,14.28.37a6,6,0,0,0,3.32-7c-1-4.22-5.1-5-8.45-6-13.87-4.06-23.52-16.7-18.21-32.68h-6.2c3.37,14.18,7.17,28.27,16.42,39.31a3.09,3.09,0,0,0,5-.71c2.77-5-.07-10-1.95-14.86l-9.71-24.87-5.05,4.25c7.92,9.37,20.41,25.62,18.24,39.41l5.38-1.55a147.79,147.79,0,0,1-10.72-17.54c-2.16-4.18-8.35-13.77-6.74-18.41q.51-4.11,1.52.6l2,5,4,10,8,19.95c1.45,3.6,7.29,1,5.87-2.71q-7.4-19.23-15.71-38l-5.55,3.55q11.46,22.54,24.31,44.21a3.25,3.25,0,0,0,5.87-2.71,217.59,217.59,0,0,0-8.12-22.55q-2.26-5.29-4.83-10.41c-1.55-3.11-6.19-9.37-4.7-13.07l-5.05.71a52.41,52.41,0,0,1,11.54,41.81l4-2.46c-1.8-.74-3.61-9.3-4.33-11.36q-2-5.62-4-11.19c-2.41-6.46-4.86-12.94-7.57-19.25-1.46-3.42-3.41-7.94-7.4-8.28-1.91-.17-2.83,1.09-4.3,1.81-2.43,1.2,1.51,1.13-3.46,1.28-2.85.08-4.31-.83-6.9-2l.65,5.52q6.47.36,3.88,4.43-.85,2.25-1.75,4.47c-1,2.55-2,5.09-3,7.63l-6.09,15.27,6,1.77,2.84-28.44c.4-4-5.47-4.73-6.31-.93a114.63,114.63,0,0,0-2.74,25.34,3.21,3.21,0,0,0,6.32.94l6.25-19.43-6.2-1.86L202.44,350.5l6.32.93A398.14,398.14,0,0,1,213,304.77c.66-4.36-5.17-6.34-6.2-1.87a238.81,238.81,0,0,1-9.42,31l6.2,1.87,4.31-30.5-6.2-1.87a292.47,292.47,0,0,1-10.89,49.15l6.31.93L199,299.71c.15-4.52-6.26-4.51-6.43,0a288.43,288.43,0,0,0,1.57,42.69c.49,4.35,6.44,4.65,6.43,0a233.44,233.44,0,0,1,3.11-38.92c.73-4.42-5.46-6.32-6.2-1.87Z"/><path class="cls-3" d="M210.21,293.11c-5.9.93-10.54,5.56-12.64,11.51a3.6,3.6,0,0,0,2.25,4.33c1.81.54,3.33-.68,4-2.46a10.12,10.12,0,0,1,8.14-6.6c1.72-.27,2.67-2.66,2.25-4.32a3.28,3.28,0,0,0-3.95-2.46Z"/><path class="cls-3" d="M176.65,311.81a17.19,17.19,0,0,0,9-3.28,3.79,3.79,0,0,0,1.15-4.81,3.08,3.08,0,0,0-4.39-1.26,11.17,11.17,0,0,1-5.79,2.33,3.45,3.45,0,0,0-3.22,3.51c0,1.79,1.48,3.65,3.22,3.51Z"/><path class="cls-3" d="M175,299.79a74.39,74.39,0,0,0,10.13,6.45c3.71,2,7-4.1,3.25-6.07a73.53,73.53,0,0,1-10.14-6.45c-3.41-2.57-6.63,3.51-3.24,6.07Z"/><path class="cls-3" d="M190.38,295l-8.68,4.46c-1.57.81-2,3.27-1.15,4.81a3.13,3.13,0,0,0,4.4,1.26l8.68-4.46c1.57-.81,2-3.28,1.15-4.81a3.13,3.13,0,0,0-4.4-1.26Z"/><path class="cls-3" d="M179.15,299.27,190.58,302c4,1,5.75-5.8,1.71-6.77l-11.43-2.75c-4-1-5.75,5.8-1.71,6.77Z"/><path class="cls-3" d="M189.81,300.66l-6.28,14.43,6,1.77c-.29-5.52-.38-11-.27-16.57.06-3.26-4.7-5.08-6-1.77a127.27,127.27,0,0,0-6.82,23.2c-1,5.22-2.44,10.67,1,15a3.08,3.08,0,0,0,5-.71l4.81-10.22-6-1.77a114.37,114.37,0,0,1,.07,16.66h6.43l.14-21.84-6.31.93a101.77,101.77,0,0,1,5.19,25.76h6.43q-1.18-13.47-3.36-26.77c-.66-4-6.25-2.9-6.32.94l-.19,10.67c-.08,4.59,6.06,4.43,6.43,0a116.25,116.25,0,0,1,3.21-19h-6.2A65.19,65.19,0,0,1,180.38,352c-1.29,2.51.88,6.23,3.63,5.16a15.42,15.42,0,0,0,8.78-8c1.11-2.19-.25-5.48-2.77-5.29-3.79.29-28,2.78-18.43,12.54,3.57,3.63,11.37,2.38,15.62,1.77a45.25,45.25,0,0,0,18.06-7c3.57-2.28.34-8.36-3.24-6.06a38.59,38.59,0,0,1-19.2,6.46,38,38,0,0,1-4.4-.07q-3.63,2.69.66,1c3.28.34,7.5-1.34,10.93-1.59l-2.78-5.29a7.56,7.56,0,0,1-4.94,4.76l3.63,5.16a73.65,73.65,0,0,0,7.13-46c-.57-3.54-5.4-3.15-6.2,0a129.33,129.33,0,0,0-3.44,20.83h6.43l.19-10.67-6.31.93q2,12.39,3.13,24.9c.39,4.44,6.74,4.54,6.43,0a109.14,109.14,0,0,0-5.42-27.63c-1.21-3.58-6.29-3.23-6.31.94l-.15,21.84c0,4.57,6.12,4.46,6.43,0a114.38,114.38,0,0,0-.07-16.66c-.25-3.19-4.41-5.13-6-1.77L177,332.49l5.05-.71c-1.94-2.44,1.2-11.31,1.89-14.22a117.63,117.63,0,0,1,4.9-15.49l-6-1.78c-.11,5.54,0,11,.27,16.57.17,3.19,4.52,5.16,6,1.78l6.28-14.44c1.77-4.06-3.77-7.63-5.55-3.54Z"/><path class="cls-4" d="M157.17,303.54a3,3,0,0,0,2.39-.4,3.18,3.18,0,0,0-4.45,1.83,24.7,24.7,0,0,1,2.61-3.76"/><path class="cls-4" d="M207.47,301c1-.47,2,.37,2.82,1.16s1.79,1.74,2.92,1.67,2-1.79,1.17-2.57"/><path class="cls-3" d="M176.24,296.62c5.64-1.69,11.63-3.07,17.21-.4l1.26-4.66c-3.65-.44-11.9-1.37-13.87,2.89-1.34,2.9,3,5.44,4.32,2.52.69-1.51,8.22-.57,9.55-.41,2.45.3,3.42-3.62,1.26-4.66-6.89-3.3-14-2.22-21.06-.1-3.07.92-1.76,5.75,1.33,4.82Z"/><path class="cls-3" d="M204.51,302.88a11.81,11.81,0,0,1,10,4.2c2.13,2.42,5.65-1.13,3.53-3.54a16.55,16.55,0,0,0-13.5-5.66c-3.19.21-3.22,5.21,0,5Z"/><path class="cls-5" d="M204.43,255.15a54.6,54.6,0,0,0,15.83,12.55c2.85,1.5,5.38-2.81,2.53-4.32A50.51,50.51,0,0,1,208,251.61c-2.11-2.44-5.64,1.11-3.54,3.54Z"/><path class="cls-5" d="M162.39,249.2a37.39,37.39,0,0,1-11.84,13.36c-2.63,1.81-.13,6.15,2.53,4.32a42.93,42.93,0,0,0,13.63-15.15c1.52-2.84-2.8-5.37-4.32-2.53Z"/><ellipse class="cls-2" cx="119.12" cy="205.48" rx="16.26" ry="17.79"/><ellipse class="cls-2" cx="252.86" cy="205.48" rx="16.26" ry="17.79"/><ellipse class="cls-2" cx="185.88" cy="182.25" rx="72.1" ry="81.75"/><path class="cls-5" d="M172.24,122.91c-6.11,9.39-14.17,19-15.67,30.48a33.71,33.71,0,0,0,7.74,25.85c2,2.48,5.56-1.07,3.53-3.54a28.38,28.38,0,0,1-5.6-25.33c2.49-9.05,9.26-17.17,14.31-24.94,1.76-2.7-2.56-5.21-4.31-2.52Z"/><path class="cls-5" d="M187,124.55c-5.34,9.36-11.6,18.43-10.09,29.74a29,29,0,0,0,15.65,21.85c2.86,1.48,5.39-2.83,2.53-4.32-7.64-4-12.94-11.18-13.42-19.93-.51-9.29,5.26-17.12,9.65-24.82,1.6-2.8-2.72-5.32-4.32-2.52Z"/><path class="cls-5" d="M233.88,142.32c1,21.63,9.47,41.54,15.82,62,3.3,10.6,7.17,22.59,3.15,33.51s-11.31,21-17,30.91c-1.6,2.8,2.71,5.32,4.32,2.53,5.56-9.69,12.13-19.32,16.53-29.6s2.81-21.22-.12-31.8c-6.2-22.43-16.57-43.92-17.67-67.5-.15-3.2-5.15-3.22-5,0Z"/><path class="cls-5" d="M134.47,142.32c-1.1,23.58-11.46,45.07-17.67,67.5-2.82,10.2-4.59,20.86-.46,31,4.32,10.61,11.18,20.5,16.87,30.43,1.61,2.79,5.93.27,4.32-2.53-5.59-9.74-12.63-19.58-16.72-30.06-4.38-11.25-.57-23.38,2.84-34.36,6.35-20.41,14.81-40.32,15.82-62,.15-3.21-4.85-3.2-5,0Z"/><path class="cls-5" d="M202.16,124.24c-12.14,15-1,36.82,9.18,49.94,2,2.54,5.49-1,3.54-3.54a68.17,68.17,0,0,1-10.71-20.19c-2.66-7.88-4.07-15.74,1.53-22.68,2-2.48-1.51-6-3.54-3.53Z"/><path class="cls-5" d="M178.72,105.14c-10.86-2.89-21.51,1-30.3,7.41-9.1,6.7-17.72,15.09-23.5,24.87-13.08,22.12-11.13,48.89-9,73.44.27,3.18,5.28,3.21,5,0-1.91-22.1-4-45.86,6-66.49,4.53-9.4,11.64-17,19.45-23.77,8.61-7.44,19.33-13.77,31.07-10.64,3.11.83,4.44-4,1.33-4.82Z"/><path class="cls-5" d="M195.56,110c11.42-3,22,2.89,30.44,10.11,8.06,6.87,15.43,14.67,20.08,24.3C256,165,253.94,188.76,252,210.86c-.27,3.21,4.73,3.19,5,0,2.12-24.6,4-51.27-9-73.44-5.63-9.56-14-17.77-22.85-24.38s-19.77-10.88-31-7.9c-3.11.82-1.79,5.65,1.33,4.82Z"/><path class="cls-5" d="M177.15,110.2a54,54,0,0,1,12.18,2.66c3.06,1,4.37-3.8,1.33-4.83a59.94,59.94,0,0,0-13.51-2.83c-3.2-.3-3.18,4.7,0,5Z"/><path class="cls-5" d="M194.38,104.93a27.31,27.31,0,0,0-16.58,5c-2.6,1.85-.11,6.19,2.52,4.32a22.81,22.81,0,0,1,14.06-4.37c3.22.08,3.22-4.92,0-5Z"/><path class="cls-5" d="M124.49,191.35c7.38-11.41,9.78-25.15,16.92-36.72a79.68,79.68,0,0,1,28.8-27.47c2.8-1.58.28-5.9-2.53-4.32a84.79,84.79,0,0,0-28.92,26.68c-8.18,12.24-10.66,27-18.59,39.3-1.75,2.71,2.57,5.22,4.32,2.53Z"/><path class="cls-5" d="M124.13,184a110.93,110.93,0,0,1,13-34.08,2.52,2.52,0,0,0-3.42-3.42c-10.07,6.13-11.41,17.79-11.87,28.58-.14,3.25,4.71,3.15,5,0a75.45,75.45,0,0,1,11.55-33.8c1.3-2-1.34-4.86-3.42-3.42a33.07,33.07,0,0,0-14,32.6c.38,2.45,4.35,2.33,4.82,0a83,83,0,0,1,25.44-44.95c2.08-1.9-.63-5.46-3-3.92a50.14,50.14,0,0,0-20.82,26.7c-.89,2.68,3.25,4.43,4.57,1.93,8.79-16.57,21.06-36,42.25-35.63l-1.26-4.66c-15.84,9.6-32.23,20-41.1,36.85-1.54,2.94,2.41,5,4.32,2.53a82.31,82.31,0,0,1,51.73-30.77c3.17-.53,1.83-5.35-1.33-4.83a87.33,87.33,0,0,0-54.72,33.07l4.32,2.53c8.47-16.13,24.18-25.9,39.3-35.06a2.52,2.52,0,0,0-1.26-4.66c-23.1-.38-36.9,19.89-46.56,38.1l4.56,1.93a44.68,44.68,0,0,1,18.52-23.72l-3-3.92A87.43,87.43,0,0,0,121,169.15h4.82a27.85,27.85,0,0,1,11.68-27l-3.42-3.42a80.92,80.92,0,0,0-12.24,36.33h5c.37-8.86,1-19.14,9.39-24.27l-3.42-3.42a115.35,115.35,0,0,0-13.47,35.28c-.64,3.15,4.18,4.49,4.82,1.33Z"/><path class="cls-5" d="M170.27,124.43c8.46-7.43,24.23-13.06,34.5-6,2.66,1.82,5.17-2.51,2.53-4.32-12.2-8.37-30.52-2-40.56,6.78-2.43,2.13,1.12,5.65,3.53,3.54Z"/><path class="cls-5" d="M184.57,119.49c3.51-2.21,8.33-2.14,12.38-2.38,4.53-.27,9.19-.25,13.52,1.26s7.66,4.52,11.18,7.25l11.23,8.7c2.47,1.91,6-1.36,3.54-3.54L235,129.51c-2.41-2.13-6,1.4-3.54,3.53l1.44,1.28,3.54-3.54c-7.88-6.1-16.33-15.09-26.21-17.7a44.87,44.87,0,0,0-15-.85c-4.46.36-9.3.5-13.19,2.94-2.71,1.71-.21,6,2.53,4.32Z"/><path class="cls-5" d="M197.76,115.76c17-5.49,31.52,7.86,39.06,21.71,3.94,7.23,6.86,15,9.78,22.67,3.3,8.66,6.13,17.4,6.37,26.74.09,3.21,5.09,3.22,5,0-.27-10.41-3.48-20.15-7.2-29.78-3.49-9-6.93-18.22-12.13-26.42-8.86-14-25.12-25.27-42.21-19.74-3.05,1-1.74,5.81,1.33,4.82Z"/><path class="cls-5" d="M208.49,117.67c5.59,2.83,11.73,4.77,17,8.2,6.8,4.42,9.77,11.38,12.37,18.77,5.14,14.58,11.54,29.48,13.37,44.94l4.91-.67c-3.13-12.08-8.37-23.42-13.66-34.69-4.27-9.09-8.9-18.39-16.25-25.43-7.16-6.87-16.33-10.4-26.12-11.35a75.73,75.73,0,0,0-16.07.35c-2.66.31-5.32.71-7.95,1.17-1.66.29-7.48,2.38-8.82,1.56l1.15,2.83.16-.55-1.75,1.75.59-.19-2.82-1.15.21.36c1.63,2.77,6,.25,4.32-2.53l-.21-.35a2.53,2.53,0,0,0-2.83-1.15A3.2,3.2,0,0,0,163.6,122a2.55,2.55,0,0,0,1.15,2.82c3.16,1.94,7.69-.14,11.06-.77a105.41,105.41,0,0,1,16.33-1.89c10.89-.28,21.8,2.08,30,9.63,7.16,6.58,11.58,15.57,15.67,24.24,5.24,11.11,10.4,22.27,13.49,34.19.69,2.64,5.25,2.2,4.91-.66-2-16.9-8.72-33.5-14.65-49.35-2.38-6.37-5.37-12.38-10.79-16.69-5.85-4.66-13.19-6.85-19.78-10.19-2.86-1.45-5.4,2.86-2.52,4.32Z"/><path class="cls-5" d="M166.15,128.93a63.71,63.71,0,0,1,77.65,32c1.43,2.88,5.75.35,4.31-2.52a68.64,68.64,0,0,0-83.29-34.27c-3,1-1.73,5.86,1.33,4.82Z"/><path class="cls-5" d="M245.25,163.22c-8.72-7.54-12.56-18.86-20.64-26.94-7.59-7.59-18-11.37-28.43-13-19.35-3.09-44-2.94-58.63,12.06-2.25,2.3,1.28,5.84,3.54,3.53,13.85-14.17,38.69-13.85,56.83-10.22,10.08,2,19.46,6.26,26,14.42,6.23,7.77,10.13,17.1,17.79,23.72,2.42,2.09,6-1.43,3.53-3.54Z"/><path class="cls-5" d="M135,164.69c14.71-28.15,47.47-36.2,76.84-37,3.21-.09,3.22-5.09,0-5-31.1.83-65.62,9.73-81.16,39.46-1.49,2.85,2.83,5.38,4.32,2.52Z"/><path class="cls-5" d="M186.13,127.7a91.83,91.83,0,0,1,59.62,51.86c1.28,2.94,5.59.4,4.32-2.53a96.58,96.58,0,0,0-62.61-54.15c-3.11-.86-4.44,4-1.33,4.82Z"/><path class="cls-5" d="M165.23,101.55l-5.34-.14,2.41,3.16c3.22-10.73,15.56-17.09,25.93-19.08,16.6-3.18,20.55,17.57,15.37,29.36-1.28,2.92,3,5.47,4.32,2.53,5.51-12.56,3.27-35.87-14.16-37.23-7.58-.59-15.67,2.77-22.12,6.49s-11.94,9.19-14.16,16.6a2.53,2.53,0,0,0,2.41,3.17l5.34.14c3.22.09,3.22-4.91,0-5Z"/><path class="cls-5" d="M210.46,107.44c.37-9.09.37-19.11-6-26.36-5.86-6.66-16-12.43-25.09-11.89-18.28,1.11-26.5,24.73-12.15,36.47,2.47,2,6-1.49,3.53-3.53-13.19-10.8-2.11-31.46,14.17-27.38,6.37,1.6,14.1,6.28,17.52,12,3.7,6.14,3.3,13.81,3,20.7-.13,3.22,4.87,3.22,5,0Z"/><path class="cls-5" d="M156.55,105.18c-4.44.2-5.11-4.05-3.36-7.12,1.34-2.36,3.49-3.45,6.06-4.16,4-1.12,8.85-.82,13-.15a44.76,44.76,0,0,1,21.19,9.68c2.46,2,6-1.49,3.53-3.53-10.37-8.53-26.36-14.82-39.85-10.61-5.32,1.66-10.37,6.33-10,12.34a9.09,9.09,0,0,0,9.48,8.55c3.21-.15,3.22-5.15,0-5Z"/><path class="cls-5" d="M170.2,93.6c3.9-3.37,8.84-4.51,13.8-5.31,6.12-1,12.67-1.69,18.77-.15,4.62,1.16,9.35,3.77,11.82,8,2.71,4.66,2.31,11.18-2.18,14.6-2.53,1.93,0,6.27,2.52,4.32,11-8.41,6.31-23.69-4.81-29.44-7.19-3.72-15.36-3.73-23.22-2.74-7.34.92-14.49,2.24-20.24,7.19-2.44,2.11,1.11,5.63,3.54,3.54Z"/><path class="cls-5" d="M195,97.4c-4-9.84-17.9,0-12.42,6.2,2.4,2.71,7.08,1.22,8.15-2,1.41-4.24-2.74-7.73-6.64-8-4.57-.3-10.71,1.8-12.26,6.53-1.42,4.28,1.68,7.67,5.66,8.69,4.22,1.09,9.36-.08,11.94-3.78,2.29-3.29,2.16-8.24-1-11-6.43-5.52-20.18,1-12.95,9.19,6.12,6.9,22-2.93,15.15-9.38-3.55-3.35-10.07-3.49-14.28-1.6-3.46,1.55-6.51,5.63-3.74,9.23,5.24,6.79,21.19-1.55,15.92-8.94-2.9-4.08-11-3.45-14.61-.94s-6.24,8.79-2.41,12.38c3.66,3.42,9.54.77,11-3.5,1.75-5-2.46-9-7.1-9.47l1.26,4.66a34.83,34.83,0,0,1,11.5-5.35c4.92-1.14,13.74.14,11.83,7.33l4.18-1.1a20,20,0,0,1-5.62-6.69,2.52,2.52,0,0,0-4.32,0A15.42,15.42,0,0,0,193,103.33c1.17,3,3.88,6.74,7.56,5.13,8.65-3.76-.11-18.52-4.11-22.43-7.16-7-18.71-8.68-27.38-3.44a20.65,20.65,0,0,0-8.41,24.94c1.16,3,6,1.67,4.82-1.33C160.6,93.67,172,81.92,184.79,85A18.84,18.84,0,0,1,197,95.27c.53,1.08,2.7,8.09,1.42,7.51-3.13-1.39-.93-8.53.1-10.34h-4.32a23,23,0,0,0,6.4,7.7c1.42,1.11,3.66.89,4.18-1.1,1.7-6.41-2.66-12.37-9-13.79-7.52-1.69-15.61,2-21.71,6.16a2.53,2.53,0,0,0,1.27,4.66c1.3.13,6.17-3.06,7.78-.93s-3.63,4.85-4.42,4c-2.91-3.23,4-3,5.09-2.79,3.09.6,4.2,1.27.95,3.39q-3.39,2.92-5-2.47l1.83-.25c4.61.11,5.93,5.21,1.18,6.91-1.48.53-8.66.37-5-3.82,1.78-2,12-2.12,12.26-1.35,1.19,3,6,1.66,4.83-1.33Z"/><path class="cls-5" d="M189.28,91.19l3.18,3.49,1.76-4.27c-5.91-.65-36.68-3.7-30.93,9.59a2.44,2.44,0,0,0,2.16,1.24,23.44,23.44,0,0,1,6.08.68c3.13.76,4.46-4.06,1.33-4.82a28.88,28.88,0,0,0-7.41-.86l2.16,1.24c-.8-1.86,12.09-2.62,13.75-2.66a93.7,93.7,0,0,1,12.86.59c2.31.25,3.09-2.82,1.77-4.27l-3.18-3.48c-2.17-2.39-5.7,1.16-3.53,3.53Z"/><path class="cls-5" d="M185.27,80.17c6.54-5.86,16.34-5.36,22.8.39,4.1,3.64,13.64,22.1,1.89,22.55-3.21.13-3.23,5.13,0,5,15-.58,10.54-20.48,4.39-28.14-8.09-10.08-22.8-12.13-32.62-3.33-2.4,2.15,1.15,5.67,3.54,3.53Z"/><path class="cls-5" d="M178.84,77.25c-15.63-7.71-33.54,3.22-33.26,20.82,0,3.22,5,3.23,5,0-.22-13.57,13.39-22.6,25.74-16.51,2.87,1.42,5.41-2.89,2.52-4.31Z"/><path class="cls-5" d="M121.22,198.07a138,138,0,0,1,17.93-40.3c1.52-2.33-1.35-4.3-3.42-3.43-11.17,4.76-16.08,20-17.94,30.95l4.91.66c-1.66-14.63,2.51-30.09,9.65-42.87,3.23-5.77,9-10.47,14.3-14.35,5.86-4.32,12.34-7.62,19.68-8.24l-.67-4.91a62,62,0,0,0-28.09,14.92c-1.16,1.09-5.76,5.53-2,3.59,2.62-1.36,5.19-4.84,7.6-6.66a74.12,74.12,0,0,1,16.7-9.37c2.95-1.19,1.66-6-1.33-4.82a80.44,80.44,0,0,0-21,12.31c-3,2.47-11.76,8.65-7.29,13.4,4.28,4.56,10-4.24,12.62-6.5a57,57,0,0,1,24.12-12c2.69-.64,2.19-5.15-.66-4.91-13.87,1.18-28.55,11-36.56,22.3-4.56,6.41-7.51,14.89-9.65,22.4A66.19,66.19,0,0,0,117.7,186c.28,2.53,4.39,3.7,4.91.66,1.66-9.74,5.68-23.71,15.64-28l-3.42-3.42a142.35,142.35,0,0,0-18.43,41.51c-.83,3.11,4,4.44,4.82,1.32Z"/><path class="cls-5" d="M134.74,155.59c6.38-7.08,12.83-14.32,20.63-19.88,8.48-6,18.13-8.91,28.26-10.77,3.16-.57,1.82-5.39-1.33-4.82-10.54,1.93-20.63,5-29.45,11.28-8.18,5.81-15,13.23-21.64,20.66-2.15,2.38,1.37,5.93,3.53,3.53Z"/><path class="cls-5" d="M151.9,139.45a156.34,156.34,0,0,1,41.18-12.71l-1.33-4.82-2.52.43c-3.16.54-1.82,5.36,1.33,4.82l2.52-.43c3.17-.54,1.82-5.34-1.33-4.82a161.14,161.14,0,0,0-42.38,13.21c-2.91,1.37-.37,5.68,2.53,4.32Z"/><path class="cls-5" d="M147.6,124.46c4-6.83,13-7.93,20-9.8,1.54-.41,3.08-.87,4.65-1.18,1.1-.22,4.7-.2,4.95-.41-.36.3-3.44.87-4.37,1.17l-5.92,1.92,1.93,4.57c3.24-1.43,7.25-2.58,10.2-4.52,1.16-.76,2.27-1.64,2.32-3.18.17-4.6-6.79-3.88-9.55-3.89-5.31,0-11.1.52-15.29,4.15-2.46,2.14-4.66,6-1.08,8.15a2.43,2.43,0,0,0,2.52,0c4.76-3.19,8.62-6.17,14.58-3.3,2.89,1.39,5.43-2.92,2.53-4.32a16.65,16.65,0,0,0-9.83-1.71c-4.17.6-6.47,2.78-9.8,5H158l-.61-.37,1.24,2.15c-.17-2,4-3.58,5.42-4a30,30,0,0,1,8.67-.75c1.82,0,2.18.43,3.22-1.1,1.57-2.33-1-.44-1.94,0l-7.65,3.39c-2.59,1.14-.75,5.44,1.93,4.57,3.66-1.2,7.38-2.28,11-3.59,1.67-.6,3.46-1.2,4.15-3,1.63-4.21-4.43-6.2-7.46-6.3-6.06-.21-12.8,2.39-18.55,4.12s-10.94,4.33-14.11,9.71c-1.64,2.78,2.68,5.3,4.31,2.52Z"/><path class="cls-5" d="M189.75,114.93c3.69-1.71,7.53-1.85,11.54-1.86,3.29,0,7.37-.43,10.52.67l-1.49-3.68-.38.57c-1.81,2.67,2.52,5.18,4.31,2.52l.38-.56a2.52,2.52,0,0,0-1.49-3.67c-4.08-1.43-9.27-.9-13.55-.84a29,29,0,0,0-12.37,2.53c-2.92,1.35-.38,5.66,2.53,4.32Z"/><path class="cls-5" d="M191.42,118.33c12.09-.19,25.16.7,33.36,10.77l1.1-4.17-.75.29c-3,1.16-1.68,6,1.33,4.82l.75-.29a2.55,2.55,0,0,0,1.11-4.18c-9-11.07-23.57-12.45-36.9-12.24-3.21,0-3.22,5,0,5Z"/><path class="cls-5" d="M207.71,136.32c9.65.49,16.45,8.66,24.68,12.72,2.87,1.42,5.41-2.89,2.52-4.32-9.27-4.57-16.29-12.85-27.2-13.4-3.22-.16-3.21,4.84,0,5Z"/><path class="cls-5" d="M230.24,130.36,229,129l-2.16,3.76c2.51.33,6.25,5.79,7.51,7.63a22.64,22.64,0,0,1,3.84,9.86c.44,3.18,5.25,1.83,4.82-1.33a27.16,27.16,0,0,0-5.8-13c-2.61-3.33-5.95-7.55-10.37-8.12-1.81-.23-3.22,2.33-2.16,3.76a17.9,17.9,0,0,0,2,2.4c2.3,2.25,5.84-1.28,3.54-3.54Z"/><path class="cls-5" d="M228.72,146.45a53.76,53.76,0,0,0,9.39,9.07c1.52,1.16,3.83-.42,3.76-2.16l0-1.16c-.12-3.21-5.12-3.22-5,0l0,1.16,3.76-2.16a49.06,49.06,0,0,1-8.38-8.29,2.51,2.51,0,0,0-3.53,0,2.56,2.56,0,0,0,0,3.54Z"/><path class="cls-5" d="M237.27,137.7c2.53,3.09,6.65,5.48,8.19,9.24,1.67,4.08.65,8.84,1.95,13.1.94,3.06,5.77,1.76,4.82-1.33-1.47-4.83-.19-10.1-2.57-14.71-2.06-4-6.07-6.44-8.86-9.84-2-2.49-5.56,1.07-3.53,3.54Z"/><path class="cls-5" d="M242.12,171c3.65,8.45,7.51,16.82,9.56,25.84.71,3.14,5.53,1.81,4.82-1.33-2.14-9.42-6.25-18.2-10.06-27-1.27-2.94-5.58-.4-4.32,2.53Z"/><path class="cls-5" d="M149.06,97.27c1.26,3.3,2.29,6.29,5,8.68a15.55,15.55,0,0,0,8.84,3.74c3.19.34,3.17-4.66,0-5a10,10,0,0,1-5.79-2.71c-1.8-1.71-2.4-3.79-3.26-6-1.14-3-6-1.68-4.82,1.33Z"/><path class="cls-5" d="M146.06,95.38c-.88,4-2.68,8.77-.62,12.73,1.89,3.64,5.59,5.4,9.33,6.57,3.08,1,4.39-3.86,1.33-4.82-2.41-.75-5.59-1.88-6.46-4.58-.81-2.54.7-6.11,1.24-8.57.68-3.14-4.14-4.48-4.82-1.33Z"/><path class="cls-5" d="M158.34,101.81c-1.54-1.29,3.07-5.66,4-6.49a27.1,27.1,0,0,1,6.14-4.13,27.9,27.9,0,0,1,13.63-2.76c3.22.13,3.21-4.87,0-5a32.6,32.6,0,0,0-21,6.5c-4,3-12.06,10.53-6.26,15.42,2.45,2.06,6-1.46,3.54-3.54Z"/><path class="cls-5" d="M153.68,88.6c.91-4.09,5.7-3.48,8.85-2.93.79.14,8.53,1.49,8.42,1.14,1,3.07,5.78,1.76,4.82-1.33-.72-2.31-2.28-2.61-4.45-3.13a73.06,73.06,0,0,0-11.16-2.06c-5-.37-10.12,1.67-11.3,7-.69,3.14,4.13,4.48,4.82,1.33Z"/><path class="cls-5" d="M149.38,91.64l-1.68.43,3.07,3.08c2.28-7.24,12.72-8.36,19-8.36,3.32,0,3.09-4.6,0-5-8.65-1.11-17.37.68-22.38,8.38L152,92.09c2.78-8.13,11.8-9.66,19.32-8.39L169.81,80c-.57.91-4.38,1.18-5.41,1.52a33,33,0,0,0-4.59,1.93c-2.58,1.31-6,3.32-7.73,5.72-3.43,4.68,2.62,7.66,6.67,8.32,3.15.52,4.51-4.3,1.33-4.82-.79-.13-4.14-1-3.85-.64-.56.58-.52.55.13-.09a13.24,13.24,0,0,1,1.4-1.2,25.35,25.35,0,0,1,7.29-4.15c3.27-1.2,7.08-.87,9.08-4.07a2.51,2.51,0,0,0-1.49-3.67c-10.4-1.76-21.73.93-25.47,11.88-.95,2.79,3.08,4.22,4.57,1.93,4-6.19,11.35-6.77,18.06-5.9v-5c-8.82,0-20.8,2.37-23.85,12A2.52,2.52,0,0,0,149,96.89l1.69-.42c3.11-.8,1.79-5.62-1.33-4.83Z"/><path class="cls-5" d="M154.19,94.93l-.83-.21a2.54,2.54,0,0,0-3.17,2.41,8.75,8.75,0,0,0,9.51,9c3.13-.25,5.53-2.21,8-4l10.76-7.94a2.54,2.54,0,0,0-.6-4.57,6,6,0,0,0-3.17-.15c-3.17.47-1.82,5.29,1.33,4.82l.51.15-.6-4.57-9.22,6.81c-2.46,1.82-11.47,8.6-11.48.42L152,99.55l.83.2c3.12.77,4.46-4,1.33-4.82Z"/><path class="cls-5" d="M165.51,92.47c-3.88,1.67-15.2,4.64-11.7,11.16,1.34,2.49,4.54,2.78,6.85,1.58,3-1.57,5.65-4.11,8.5-5.95s.19-6.07-2.52-4.32C165,96,163.38,97.1,161.8,98.25c-.9.66-3.42,2.06-3.59,2.88-.06.3,1.38-.68,1.72-.85.75-.36,1.53-.66,2.3-1L168,96.78c3-1.27.4-5.57-2.53-4.31Z"/><path class="cls-5" d="M174.29,84.94c-.88-6.1,9.39-10.86,13.77-7.15l1.77-4.26c-4.05-.19-13.22-.39-14.16,5.26-1.08,6.55,8.83,4.23,12.07,3.1,3-1.06,1.72-5.89-1.33-4.83a21.07,21.07,0,0,1-3.47,1,15.85,15.85,0,0,1-2.92.25c.23,1.24.72,1.58,1.46,1,1.1,0,2.58-.66,3.76-.77a33.47,33.47,0,0,1,4.59,0c2.07.09,3.42-2.87,1.77-4.27-8.49-7.2-23.73.9-22.14,12,.46,3.17,5.28,1.82,4.83-1.33Z"/><path class="cls-5" d="M182.72,80.76A31.72,31.72,0,0,1,196.1,85c2.79,1.61,5.31-2.71,2.52-4.32a37.53,37.53,0,0,0-15.9-4.93c-3.21-.27-3.19,4.73,0,5Z"/><path class="cls-5" d="M187.5,80.29a22.52,22.52,0,0,1,10.06,5.88c2.28,2.29,5.81-1.25,3.54-3.53a27.63,27.63,0,0,0-12.27-7.17c-3.1-.86-4.43,4-1.33,4.82Z"/><path class="cls-5" d="M197.31,78.72c5.83.35,13.43,4.91,15.63,10.63L216,86.28l-.64-.25c-3-1.15-4.32,3.68-1.33,4.82l.64.25A2.52,2.52,0,0,0,217.76,88c-3-8-12.14-13.79-20.45-14.3-3.21-.2-3.2,4.8,0,5Z"/><path class="cls-5" d="M200.65,79.32c2.3,3.54,6.18,5.72,8,9.56,2.48,5.2.9,10.79-3.16,14.65a2.54,2.54,0,0,0,.51,3.93c6.11,4.52,9.79-3.5,9.81-8.51l-4.91.67a9,9,0,0,1-1.58,8.24c-1.5,2.13,1.37,4.6,3.42,3.42,11-6.29,1.18-20.39-2.66-27.94l-4.31,2.53c3.24,4.48,4.32,8.11.83,13.15-2.63,3.79-6.45,7-11.38,6.09v4.82c6-2.47,12-5.2,15.11-11.26a2.52,2.52,0,0,0-3.42-3.42,140.09,140.09,0,0,1-19.11,8.41l1.93,4.57c3-2,18.38-9.29,13-14.86-4.8-4.93-13.17,4.58-15.52,8.19-3.8,5.82.81,10.15,6.65,6.52,3.87-2.42,12.19-10.47,6.77-15-2.45-2-6,1.47-3.53,3.54,1.19,1-5.91,9-7.71,7.75l1.24,2.15c-.11-1.09,6.53-10.31,8-9.06-1.83-1.53-9.88,5.49-11.41,6.48-2.26,1.46-.87,5.56,1.93,4.57a150.21,150.21,0,0,0,20.3-8.92L206,96.15c-2.49,4.81-7.33,7-12.12,9-2,.83-2.71,4.31,0,4.82,6.69,1.27,12.18-1.9,16.16-7.18,5-6.66,4.86-12.74,0-19.41a2.5,2.5,0,0,0-4.31,2.53c2.38,4.68,11.35,17.13,4.44,21.1l3.43,3.42a13.85,13.85,0,0,0,2.08-12.1c-.72-2.74-4.89-2.16-4.91.66.31,1.79-.46,3.19-2.29,4.19l.51,3.93a17.27,17.27,0,0,0,2.63-23c-1.94-2.73-4.89-4.48-6.71-7.29s-6.08-.19-4.32,2.52Z"/><circle class="cls-5" cx="163.61" cy="207.08" r="10.85"/><ellipse class="cls-6" cx="154.96" cy="230.41" rx="14.04" ry="8.09"/><path class="cls-5" d="M145.16,203.35c4.42-10.16,15.57-14.77,25.76-10,2.18,1,4.08-2.23,1.89-3.24-11.91-5.52-25.59-.81-30.89,11.38-.95,2.2,2.28,4.11,3.24,1.9Z"/><path class="cls-5" d="M139,197.18l5,2.67c2.13,1.14,4-2.09,1.9-3.24l-5-2.67c-2.13-1.14-4,2.1-1.89,3.24Z"/><circle class="cls-5" cx="208.95" cy="207.08" r="10.85"/><ellipse class="cls-6" cx="217.6" cy="230.41" rx="14.04" ry="8.09"/><path class="cls-5" d="M230.64,201.45c-5.31-12.19-19-16.9-30.89-11.38-2.19,1-.29,4.25,1.89,3.24,10.19-4.73,21.35-.11,25.76,10,1,2.2,4.19.3,3.24-1.9Z"/><path class="cls-5" d="M231.67,193.94l-5,2.67c-2.12,1.15-.23,4.38,1.9,3.24l5-2.67c2.13-1.14.24-4.38-1.89-3.24Z"/><path class="cls-5" d="M168.15,243.09c9.1,6.07,26.44,10.39,34.7,1,2.13-2.4-1.4-5.95-3.53-3.53-6.57,7.45-21.48,3-28.65-1.79-2.69-1.79-5.19,2.54-2.52,4.31Z"/><path class="cls-7" d="M176,306.2A20.28,20.28,0,0,0,161.63,316c-2.94,5-1,11.05,4.88,10.93,5.47-.1,12.29-3.1,15.59-8,2.6-3.83,4.09-12-2-12.54-3.3-.27-3.29,5.35,0,5.63-.94-.61-1.29-.13-1,1.45l-.72,1.59a10.3,10.3,0,0,1-3.4,3.39c-1.42.9-6.75,3.71-8.42,2.83-1.86-1,.3-3.62.93-4.36a16.58,16.58,0,0,1,3-2.74,15.91,15.91,0,0,1,6.9-2.58c3.27-.49,1.88-5.91-1.37-5.42Z"/><path class="cls-7" d="M184.6,311.76c3.36-.59,7.06-1.28,10.4-.22,1.86.59,8.69,5.67,3.45,7.44-2.68.91-6.54-2.7-8.4-4.36s-4.1-3.16-5.3-5.24c-1.76-3.06-6.21-.24-4.44,2.83,3.5,6.07,20,19.73,24.66,8.2,1.77-4.4-.8-9.34-4.09-11.92-5.22-4.09-11.68-3.19-17.65-2.15-3.26.57-1.87,6,1.37,5.42Z"/><path class="cls-7" d="M179.24,313.28c-2.29,12.29-6.45,24.07-6.94,36.71-.13,3.61,5,3.61,5.15,0,.46-12.11,4.56-23.44,6.75-35.22.66-3.53-4.3-5-5-1.49Z"/><path class="cls-7" d="M181.77,312.52c5.07,14.39,9.93,29.76,12.53,44.92.62,3.55,5.57,2.05,5-1.5-2.6-15.15-7.47-30.53-12.53-44.91-1.18-3.34-6.16-1.89-5,1.49Z"/><path class="cls-5" d="M349.93,21.69a2,2,0,0,1,2,2v326a2,2,0,0,1-2,2h-326a2,2,0,0,1-2-2v-326a2,2,0,0,1,2-2h326m0-10h-326a12,12,0,0,0-12,12v326a12,12,0,0,0,12,12h326a12,12,0,0,0,12-12v-326a12,12,0,0,0-12-12Z"/></svg>